<?xml version="1.0" standalone="no"?>
<!DOCTYPE svg PUBLIC "-//W3C//DTD SVG 20010904//EN"
 "http://www.w3.org/TR/2001/REC-SVG-20010904/DTD/svg10.dtd">
<svg version="1.0" xmlns="http://www.w3.org/2000/svg"
 width="260.000000pt" height="260.000000pt" viewBox="0 0 260.000000 260.000000"
 preserveAspectRatio="xMidYMid meet">
<metadata>
Created by potrace 1.11, written by Peter Selinger 2001-2013
</metadata>
<g transform="translate(0.000000,260.000000) scale(0.100000,-0.100000)"
fill="#000000" stroke="none">
<path d="M100 1300 l0 -740 165 0 165 0 0 422 0 423 244 -244 244 -244 241
244 240 244 1 -422 0 -423 170 0 170 0 0 300 0 300 300 0 300 0 0 140 0 140
-300 0 -300 0 0 155 0 155 405 0 405 0 0 139 0 139 -462 4 -463 4 -105 -105
c-58 -58 -218 -221 -355 -362 l-250 -256 -354 363 -353 364 -54 0 -54 0 0
-740z"/>
</g>
</svg>
