<?xml version="1.0" encoding="utf-8"?>
<!-- Generator: Adobe Illustrator 16.0.0, SVG Export Plug-In . SVG Version: 6.00 Build 0)  -->
<!DOCTYPE svg PUBLIC "-//W3C//DTD SVG 1.1//EN" "http://www.w3.org/Graphics/SVG/1.1/DTD/svg11.dtd">
<svg version="1.1" id="Layer_1" xmlns="http://www.w3.org/2000/svg" xmlns:xlink="http://www.w3.org/1999/xlink" x="0px" y="0px"
	 width="588px" height="500px" viewBox="446.5 0 588 500" enable-background="new 446.5 0 588 500" xml:space="preserve">
<path fill="#FFFFFF" d="M669.824,388.086c0,1.953-2.246,3.516-5.078,3.516c-3.223,0.293-5.469-1.27-5.469-3.516
	c0-1.953,2.246-3.516,5.078-3.516C667.285,384.277,669.824,385.84,669.824,388.086z M639.453,383.691
	c-0.684,1.953,1.27,4.199,4.199,4.785c2.539,0.977,5.469,0,6.055-1.953s-1.27-4.199-4.199-5.078
	C642.969,380.762,640.137,381.738,639.453,383.691L639.453,383.691z M682.617,382.031c-2.832,0.684-4.785,2.539-4.492,4.785
	c0.293,1.953,2.832,3.223,5.762,2.539c2.832-0.684,4.785-2.539,4.492-4.492C688.086,383.008,685.449,381.738,682.617,382.031z
	 M746.875,7.812c-135.449,0-239.062,102.832-239.062,238.281c0,108.301,68.164,200.977,165.527,233.594
	c12.5,2.246,16.895-5.469,16.895-11.816c0-6.055-0.293-39.453-0.293-59.961c0,0-68.359,14.648-82.715-29.102
	c0,0-11.133-28.418-27.148-35.742c0,0-22.363-15.332,1.562-15.039c0,0,24.316,1.953,37.695,25.195
	c21.387,37.695,57.227,26.855,71.191,20.41c2.246-15.625,8.594-26.465,15.625-32.91c-54.59-6.055-109.668-13.965-109.668-107.91
	c0-26.855,7.422-40.332,23.047-57.52c-2.539-6.348-10.84-32.52,2.539-66.309c20.41-6.348,67.383,26.367,67.383,26.367
	c19.531-5.469,40.527-8.301,61.328-8.301s41.797,2.832,61.328,8.301c0,0,46.973-32.812,67.383-26.367
	c13.379,33.887,5.078,59.961,2.539,66.309c15.625,17.285,25.195,30.762,25.195,57.52c0,94.238-57.52,101.758-112.109,107.91
	c8.984,7.715,16.602,22.363,16.602,45.312c0,32.91-0.293,73.633-0.293,81.641c0,6.348,4.492,14.062,16.895,11.816
	c97.656-32.422,163.867-125.098,163.867-233.398C992.188,110.645,882.324,7.812,746.875,7.812z M602.734,344.629
	c-1.27,0.977-0.977,3.223,0.684,5.078c1.562,1.562,3.809,2.246,5.078,0.977c1.27-0.977,0.977-3.223-0.684-5.078
	C606.25,344.043,604.004,343.359,602.734,344.629z M592.188,336.719c-0.684,1.27,0.293,2.832,2.246,3.809
	c1.562,0.977,3.516,0.684,4.199-0.684c0.684-1.27-0.293-2.832-2.246-3.809C594.434,335.449,592.871,335.742,592.188,336.719z
	 M623.828,371.484c-1.562,1.27-0.977,4.199,1.27,6.055c2.246,2.246,5.078,2.539,6.348,0.977c1.27-1.27,0.684-4.199-1.27-6.055
	C628.027,370.215,625.098,369.922,623.828,371.484z M612.695,357.129c-1.562,0.977-1.562,3.516,0,5.762s4.199,3.223,5.469,2.246
	c1.562-1.27,1.562-3.809,0-6.055C616.797,356.836,614.258,355.859,612.695,357.129L612.695,357.129z"/>
</svg>
