<?xml version="1.0" encoding="utf-8"?>
<!-- Generator: Adobe Illustrator 16.0.0, SVG Export Plug-In . SVG Version: 6.00 Build 0)  -->
<!DOCTYPE svg PUBLIC "-//W3C//DTD SVG 1.1//EN" "http://www.w3.org/Graphics/SVG/1.1/DTD/svg11.dtd">
<svg version="1.1" id="Layer_1" xmlns="http://www.w3.org/2000/svg" xmlns:xlink="http://www.w3.org/1999/xlink" x="0px" y="0px"
	 width="532px" height="500px" viewBox="478.5 0 532 500" enable-background="new 478.5 0 532 500" xml:space="preserve">
<path fill="#FFFFFF" d="M937.5,31.25H562.402c-17.188,0-31.152,14.16-31.152,31.543v374.414c0,17.383,13.965,31.543,31.152,31.543
	H937.5c17.188,0,31.25-14.16,31.25-31.543V62.793C968.75,45.41,954.688,31.25,937.5,31.25z M663.477,406.25h-64.844V197.461h64.941
	V406.25H663.477z M631.055,168.945c-20.801,0-37.598-16.895-37.598-37.598s16.797-37.598,37.598-37.598
	c20.703,0,37.598,16.895,37.598,37.598C668.652,152.148,651.855,168.945,631.055,168.945z M906.543,406.25h-64.844V304.688
	c0-24.219-0.488-55.371-33.691-55.371c-33.789,0-38.965,26.367-38.965,53.613v103.32h-64.844V197.461h62.207v28.516h0.879
	c8.691-16.406,29.883-33.691,61.426-33.691c65.625,0,77.832,43.262,77.832,99.512V406.25z"/>
</svg>
